<mxfile host="app.diagrams.net" modified="2021-05-13T20:03:54.038Z" agent="5.0 (Windows NT 10.0; Win64; x64) AppleWebKit/537.36 (KHTML, like Gecko) Chrome/90.0.4430.212 Safari/537.36" etag="9Bw5-AJl9jDo3Xrxmdcp" version="14.6.12" type="github">
  <diagram id="Yydz2z-KfRyfjppFWQB_" name="Page-1">
    <mxGraphModel dx="1952" dy="614" grid="1" gridSize="10" guides="1" tooltips="1" connect="1" arrows="1" fold="1" page="1" pageScale="1" pageWidth="850" pageHeight="1100" math="0" shadow="0">
      <root>
        <mxCell id="0" />
        <mxCell id="1" parent="0" />
        <mxCell id="HzkqRATstMNTENA_7Wu_-10" style="edgeStyle=orthogonalEdgeStyle;rounded=0;orthogonalLoop=1;jettySize=auto;html=1;entryX=0;entryY=0.5;entryDx=0;entryDy=0;strokeWidth=3;" parent="1" source="HzkqRATstMNTENA_7Wu_-1" target="HzkqRATstMNTENA_7Wu_-2" edge="1">
          <mxGeometry relative="1" as="geometry">
            <mxPoint x="210" y="277" as="targetPoint" />
          </mxGeometry>
        </mxCell>
        <mxCell id="HzkqRATstMNTENA_7Wu_-1" value="" style="shape=image;verticalLabelPosition=bottom;labelBackgroundColor=#ffffff;verticalAlign=top;aspect=fixed;imageAspect=0;image=data:image/png,iVBORw0KGgoAAAANSUhEUgAAAN4AAADjCAMAAADdXVr2AAABIFBMVEX/////uQA8PEHS0tL/3ID/twD/tgD/244QexD/7Mr/wD7/3YP/2HT/wjH/uhD/tAD/0F4AdQA+PkM1NTovLzUAbwAtLTPQ09cAcwDb6tspKS/K3cq00LTo8OgAegCYv5jO1OEuhC5BjUH19fVyqnL/9uboxnDp6en1+fWpqavf3+BjY2cjIyqgoKJISE3/+/P/x1DV0cj0vj/FxcahoaMAaABVmVWKio16en63t7mGholqp2n/6cDF3MUWcxb/6rVVVVlsbG//zWf/8tqFt4XZzrgneib/35//0nr/7sn/5qvoxnzzv1DczbDgy6PYz8CjxaNKkErtwmDkzZvlyYkAYADqxHeOt43my5Jcnlz/1Wr/zE4HBxX/4ZQAAAv/4auRTQYvAAASx0lEQVR4nO2de1/aShPHJRhQJEGSGDCtnioickepBRQLQi3g9RQ91l58+v7fxbOzSSAhd5JA209+/acrEPJlZndnZyfJykqgQIECBQrkn6rValapatXDg+9sizpSNnbwS6qG/JJHX4uI+v31dufXIBod9nq1qXrDaHRw3WmP1vv9rFvSo4M90Nr+G2h93RNb/wLszq7YOMfk39Zwa9c9V3/UuR5EezWKDiUkRZSS/0jSJ73h4Fen7YLy6Dy9i5Tew3ifkknUSG79A0TbW9DYPf2A8T5sQWN3yxVav3MdHdaoiIhEygqpJP8VvY4x6Vovet1Zn4vx6Dy5hpSU8HahsbYlWi8tNmQ8sTU32agT7dGiWUKOJEMOr9t9p4gLwauOrqM1QJs1lBNIZHISIY4cEeripb3Ey3ZehxSyQGR+NJkQjkLFo237hEfnW0mkrTURL51GjfSp1PegkTx1g1dtR3sh5/5oInSwUG+wbhfv0z5o7wPG+2dfbL3F1tvbw40DjPflNJlGOnUClx0MKRM0GD6kwXI6zExGUc2QM/1cIkENO/ZMuP1G1I6icYEbRxdi4w3G+/TlA2jfPtxooxbR7W3yeElTsZPb2/F4fKgW+svt7ckJmjj0BlYJkO4Nsk5+agvtbO+AbE/r69GYjuHweE9TtfHzzc3T4/3d1XEYKfVOqRT6y/Hx1d3d49PN8/g2RpN6lkRm7l17Gd84UXaohQNPpE/GhwgLUaVS71KiwhpJL6B3hI8fEOXz+IQGd50FpHt2+6Cnqg5qaABQWy0Som4Pn+6vsKn0mPQFkIjy4f7p8JaeNSIC/O6lh9pTdkirLIfY6Nubx7uHsBMwNeS7dwjx5TAWUtswkbhdtAHXe0o46Gy3T/cPYV03dMaYCt/d38RCqsMnYr+8OOntT+egb5Zv7FAJJRx98nR/nHrnEk0mROZ/uD+kQgrABB31AO/N/ukW0n9W72sr6SKh8eOVV2wyYur47oVS9MIEfe0FXtJO1NKORaYjJf18d+zWJXUBU1ePsSlghOosCK8am9qOHt+FvTXcVMhHb6YWTFCuJ0B7eFG525Mkde+H5SZKha9uZT4y4rr72cJbnxiPfvYVTgS8oSW+SKzvGi9tjTeUjEeGXsI+w2G+R4mPJKMu3RPwrFYM1Z5svGe/TSfypZ4lvkTPJd7OxVsss/esS8MmOV6A7USNpcGl5tY7bahDib8lfbcoutQ9LXW+tv9415KrUMcLw3sQf1GS8iQ0M1dUGqnpq0XjeTGz28d7Whjek0fOefTmAssOXohakPlSV1Jvj8RcrovefPkIMp0YJnhk7GEBM0MKXNMrPBtRyxSPvL3znS+VuvtBTsKWReLBUPbi8/CZOn6kJ6uTReMhA47vPV7pKdnehe/Him9bOB4CpJ+8XspO4FJ3k3B6WXhonULd+LCeRcv1+2danVLyAM86GRHVbtVRh48PXpoQHevqZUzPfpFrvO2vB1iO8MCC5O3zI+SS3CNCXvfh8fAkpN1sco23ciTKIR5OTgPh1bF+RtoB2vHdy/MJqbsl4x7PhnTxRET6ZHzzeBV2lKGekr17F756vBmD3fS/Ybl44q4Q3mCANLy0vWCJJW0zILJD2Ekx2dtdNp6IGImE8O7Qy/3dwzFOyhoJvQS7RPdPz+PxCQ0Obnpo13hHO6Jc4E3MGKIp2Ng7PLx5gU2wq4eHY0kPD1eI6f7+5ebwcAx7fNIHtIfxeGLYPvjwDemLW7wJI7YlTVMUFYudTBVDf6BpOiTVhRh8PEJT3k7rF/unlpvPtvFmOHVk9pEISf34/mPpUYsPgvIP+sdmfGNj8y/Dw0alkd0Q28bq34UHHRW55CZm21hd/VvwcGlIgqRigLYqoq3++XjT4hDqByZb3Ziy+YeXXgwemjBiyGCIK64h8wXvSCzpsZcpcyuS+i5C6ID5g2dHHuLFDcH+EjwTtgAvwAvwArwAL8AL8AK8AC/AC/ACvAAvwAvwArwAL8AL8AK8AC/AC/ACvAAvwAvwArwAL8AL8AK8AC/AC/ACvAAvwAvw/ki8OK5alf4T/6vwEM8rvtsqqN25fn1dhapql3iZ3wQvOuiMVLflrGZHndf4qju8wmX9t8Br695UFRH+SLjAC1/+7Drn8wFvgOkK9XyjCSrn6znsV9VRL6IAdIYXLpYI3jmfD3jxa7hLXotjhRKIZ7qXzXwBviz7Kzblc4QX7pYIZg4+P/pe/BXx5Zo/CQZEsCwvMMUzfGb9YUK+Lt8JXrgoIDqC4CoO+fwZOYEvUy6xcEpIDIMJ4dSqHTLhGK/eFekIgmday8eb8hGyGIbjKw1w0Wsq4hAP6KSjIPs54vNpWhf5GiWCUAJyuO+MRD7bePUurzgMxzjxT7+ilvgG8OUV9oPfnmffo0G0H0o4wKszvOSZEh+Rtz/B+xeUvcKNrMqCko9gOKK8It2gySae2nYglni/fDzZfqyajxXgtx9ESJt4rQpHzIrl8svHQ3xgvxY/wwfnVu0lSFt4LWRvZhYPHaNs0z/9XBCJ/pmf4eOYMOp+ZIS0gaf1TNl+Nv3TEzw4ht56L77alyygFFdBP300YsN6LYbVpUN8gj37eYIHNyvRXc7GN9Y1fAwhoOGzH0tY4uX1PHPC17DD5wEeSUV7CYPVusSHZivlqVXQ9D6wxKvrjCqK/leyYz8P8CKxbLUXiegnI+Kr6/hMVV7GNlHvoy3w3peMPFMCLJ3lFoJXq65kewmDXEt8Y4Tmh6agPDGWy61Uh5QZXuY9a06HjvK/xgLwxNvAZjeNUknx1+pKoajyM5bNw/2UzfDyVnT2lg/u8SIhfJ/NbPS7Lt3qagedrKA+M7aLBpcfJnj5n1ZwhFAsWNJ5gJcIIVdC35S9juvSgXOWS6oREI33BfR7GN4CMVO29EyC64at6bzAo2C5WYC75uvxwdoh1xRm8Vpo5WeEp1pJGXlm0Q6dezwyMkQj//+6wNfRw7uGVMLs6bJo1uob4CE6CzbGnmd6gkcPoKvg76vq+Wcb8i6zJ8heZlayBn2vzFt6pmDPdl7gUW38e/Min3ZeyMKydib4YLhubiWre+tfa89E/e7Snu08wRut5BqCNJJVOzP2i79CAnbWegyL8Kp6eOoVvi4dy9um8wjvDAZ+Xf+MI9eta8xhiJc5s/RMVri06Zne4K1LeEwJj9Wq8SUOXS//czYwRngFPbzc2U/DIFr+ZKlpHYt5ideW8JD9uir/jMdXXzuo653Ndj2x72nx4DhWdPylAzrvhhasEoxo2D/j8TjspEC+eiYiE8+ymNOOnCgytfRMvmm733mDR/+axlCif6L5b0OxSdTSOWeYGGbnvUJzkvc1pBNsrBI8xkMRdWsSIor+OepLD+PJhfONos5Js2ixtq7Gg1WFBR0hOOl3nuCFIhCUTUJmRpjEgplw/qzYZUucTi6Iqa9U2zN4DG9pu4ZDupXXkBchda44cUBGqABfodVodpmSwBGM9qQRHnpPVv24pUxX+zuoLW4v/6DSL9qLBZFqMhaKrXyzWBEwmsEZs1ovy1VM8RjCzup8VuuxhDWBqUgSdb66YkGHbEOU0OxshIbPFfdRlWYSFrOfsJdbmdX0aRrzm69WXcldKjsOyxqabWqL2ciqYbrGY0vOPRPkvvNFIKuQ10zd5mKI2cixaDKyoF9jPrqVfs21+RKbVRQ2C075ShVl7NgijCc95JkOdoXUGrh+gCd+5k6rZDFrzYrlSopVW06zqlC+1WZOWleU68ElsQmzsjP3ZLuXlcp0HmuY0c01qshy754Rug2hpWB8hhpxlzmQdAqZMmfsmixve79LVyPK7VNYE70sLvWwyQbjirLf5cqGeyXgmfZ3K/XVd8tHJuJVnHq16Z/8pcLbcq2K/jaXSMc5q4XQ5euZ3rrXBh8klEy3dJTipDVbrlAo1BsVE6szLOueDs3uQ/0bt9tWgoIAOc/Z4ZNnvEKxW2GQeVjjzzjYZzbXqKZ5jKozvthoBW+nmpysaA+uKX5jvVsyDVRwQdMcVYD6ykYp2oUFSQpvxRaayBpm0SaiEz0zjDeWDd6J0ViHNTrmqvaHofldlKS+b8BzuTN51JcMLYjWbFI2odA1menAY1mWJzykA2XhGetz+ihNk3h+QD2wWOGgQ00EZ8vMeKbx1isYrlI8K+fL9hN+NlXNDmoUOS8hmajhp3Ln6pfdCisIPM9xPC/wbKXLiIs5Rlqz1Rlj27F85ayeyWTmqi62JlwfUvhxA/MAJujVdQDM5FpnxW63AuoWG61CmQf7yTOC6ba5zc0fF2pHezEyoftocksD0sORnGXIwMQmBV557J8VHPmjxb1JDFb2GQ5UbUc3Y1QkkZiUl9rlg6dyX4+0j63GYSXL4f3wzJlhjCk0ffFJHWXbG5s1ikaMek9PNzFgIkHXohrCPMsxDPuzLNrPYMrjiouiw6quXw97PQSZAJk+/4OERxMgkXSs1hsOB5ocuxiTims3gzUCW/G73+kgZtc7g2FvsxbDpjQUTVO1ze/D6KDdr+o+lVT0T170zwavkxnj5sw5eCGE+WuwMUTWRKi1HyfwwJBYrVZDbWStYbTT7ls8Kb5FsJBZEBnKmtQYesl5rs97VavZbH+qalXfWDrKQ0ZF2sLS2alku/6d9EKE+Ery5KfdOWLPlnx6rtWS6VoVbXKGxQvz5XU/D9QSQ+p6RZvXxMVYK4UlDi9eqVXBeVGGUC4u2BJELGFH28u/pfLibheDgm1iOn6KRQFhoeRsC/a3k1Sfy6A5sHAmxZ+w7YDn9EKFVaWa/jiVZTqovco0pPilJBVShSvIS+ezn+XjBhchCD4lOuhkwDe13UqhyCoW9U50cI71xuPTdaj3Ym+bRC+Qv2eZnxJPriimYARHBR5Ye+lkMpn+bPp8ed91Jq0VkO3kP2XKk2KcekVM5dsv+ptqb3dtbS25t1S8MjehE0MzvH44O5P7nZywdlQ6Jmpvbel4Up0tM6kDKOPUQ0ZsKJMU2g1OKy0dL9Pk1Z6JwmphekFsnlBGMrAB72j1t2w8eY0O853Y1eACOE5ewrYIdYzNoLW7E/vtJZeKl2lyhNozc03xgmbsn+91dsFsl92C9tc+fvy4tr8kvNylIEfOk6A51xTQnI4vGNWvfucd+OdbUdv+nL6FclIlKlSoTKe0wmUJX/AbnvXMyfiiKYD5LZUpliTPVCcyxUo5ljPM6zq+Vn0ZAiuJdMRMHUDuTDDf1HV2rfNSBGOI7JmziwH5NWO+JWQHHalQLDF6nimpyZtueaL1hS37XeCR5cL0Kcl+qCD3Ow5ft65RrsFb+Cdvh+/zFpoYthYeUk/6HWdUXQRrBlP/ZO2MLzik3l30tB7uSp7JEcZ1AMZ7KtIvY6P+YylBWb0oSHSsSd1brmExfrKcpf2WgQc3kpHpTN9odf0Ja2J7UUvAq088k7E6u4Z5URNjWeOC8dYWiVfvyp4pWFZkmu7Ziv5p3v8+boEWOHLWCcF6VJnKvN7YaNac6NMB6NPCQuqWlGhn7N5jxeKaWca8OvDoaHGJwEw5P6HjOZu1wor7K+nzcV7VmLlUuPmTl2pXbIwqU1nbz/pafP9Vh9JcKbnOO6lZzJTN5z8Uk+vGdYtUJl+ZBMmW893sZ99bxC/G96LZwfK972Ua08Up8kyndW/vCSv/NBg/D76dn59/O/A7Ca+I/xlbsfCMWubrB8Zo/fd5K51O+z7vhZlpRQczV6HKzP1dNHzCma57LiQJn7tUFH7bXYnOKG9WUgfm0z3oQmLOvOpqmTk3Ils6FzUqpN/7FoEXVl2Gx827Td7SqSyYmq+k652LwFPlhVwkKfXuvzbB07+GdgF9T3khF8OVXKS4TMYXRn/vaP8zyM8kfLg78SmGsLdMMBTcg00f0MB6b7C2fZzXFbd8Ynmz5IMdtSoGl3ozpYXVtKpPSA6IIa3ufHNccziDi4uY0iIKkjUqyFkjgmW7dQ9+YPmeuDN0S9p2KE92uPiGN/s6dT3/XJJvtuCSbmw6x0UNhgoXNeMLY7Sn8o+of/HYcrSjWEDIjR1Nw75y4JrYL/Melrxp/JORqpW1+pyGeX1rH4iO3p7jzMs5zrxsH4j6Bxo7X6WGMz64qwlajQmXBU9dJ1xRX3RsfD8aPK2vpfewwT79l4QinlM8C75Nb0Fr6xxe2t4/hcbpF0c5pzpEYxxb9LzXw0VlxPRqJMJw1BTznEkJ7xS30iLeWhK/JOHhRvqDI+sVLgWOr5R9KMXMlLssz3Esy/E8UTReHVvi7brAg1HAp6t/MuFGt4JsV6kUzbq1v3grhZaP43WhXq+HzV1jD7rUpO+drqFGcmuCh/7JzpmGl9IfllNCMbf2dkHpfWyVT6e4tXUBDYSHWzIeft+fhvevct67+IobX8WJQZoSsSl3pPe9XfgudaBAgf4s/R9V6BwScTQO/AAAAABJRU5ErkJggg==;" parent="1" vertex="1">
          <mxGeometry x="40" y="213.5" width="124.2" height="127" as="geometry" />
        </mxCell>
        <mxCell id="HzkqRATstMNTENA_7Wu_-2" value="" style="shape=image;verticalLabelPosition=bottom;labelBackgroundColor=#ffffff;verticalAlign=top;aspect=fixed;imageAspect=0;image=data:image/png,iVBORw0KGgoAAAANSUhEUgAAAOEAAADhCAMAAAAJbSJIAAAAqFBMVEX///8Hdrfz8/N7e3v09PT+/v79/f319fX8/Pz29vb39/f6+voLc7B4eHcAc7YKdLK1zOIAb7RHkMQOernq9Png7PWJs9Vyps8Vgb1ycnIlhb9SlMYAa6ylx+AAcK+uzuQ4i8Hl5eWsw9iDq8urq6uGhobX19eTk5PW4elPj72goKC9vb2Pj48XfbRuoMW0tLTExMTS0tK/1OeRu9pblsEAZaqoyeLBwcAjWCnkAAAZWElEQVR4nN1d6WLbNrOlKHE35Upp2tCxZTPV0shyJX3NTd7/zS4IYLBvXOw45Y8YkYbAHGKZwcwhFEXkShKtENkKry87bXX4ynPy30QokG9SXkj9sqldNrLIgkgf2T5qkqsqycdJVZGP06qicmWuFHrJVl5ZqC4CESabW2X7qEmusiAfJ2VBPk6LkrZS0CoqKAiyCchGqmwOslQjXl1pqS4yNG2TFZvW1MwVWVxruaD/yxaklXyRkTurmLZSxrSKAmQXC1p5XEQW2YzKpn5Z1nQKTef2pvuoiccs4EZK+++MVdk4swKM+wC0yZYgqze9sDbNZPGYhZHLH2M8KUCht22yif1h6AAz3rRXTTyKE7r2JItYA1god/ZQOqQHCw5QaTrXmubPlsv6mk7IWKRWQ+yVnzdEdYDWIepXkzWt3BkwuH+ROQiytBX/EJ14DhqGaMAc1NUMBDjtwvF6c3CAmrSVn2YmHDbTOUSD1Uy7P0n5OgADnIJeZmIQwM5tTKriVebg2CGqARwwB4mtzyvv+jvxHHS5aiHP1qcmbzrrvknoJuM/aCaoa0st/i/iqg1SE+6cQOn34aqpasL//iOumiBbiAB/whyMBwAcomYitfLfcdVY09jip8VbmYk3c9VYdXkX0Emq8r+yo9fVpBb/PbtqfXb0uprU4oMijnHyHszEiJnkfzQTu2qTmomApkldPKIKAVr4umQFWmdahMvmIAuTXRApoWldVhEZZ82i//2Gri9ffiMXFLQPTCKvL/s//EhH+SNR9LRare7vV/iCvyGFiWXN33wyKt1nfUOfr5e3N7czfAkF8nd2wwq6yBSyJpFbLrK8G+iqMdkuVro2afQ+AHYI01FzEKdw1pt3CxAhTMdFVvACul6+OUCHiAQQIVzYY1gBFirDIhThO+xBdL1YAfZwuAjC9wlw8zIBQILwfQK82dx5hmiIw4URvlOAt8s7dw+GxJwxwvcKENvDkUNUtfjvCyBGOA4gtvjLd2gmqCxCOGorGmGuhmDxXxtgzx7sEA5y1ZhsiXc/69mbA7QiVatDFn9U4CHDIszivxnA0B5E18sUkRWw+K8NsO8cxN/cWZQOSk1SWbD4rw1wQA/egsUf1YNg8X8awBsHQGrxRwLsEN683RANXmTwNxjhqPh0khKL/9oAh/Ugsfiu4J93DiYVsfg/DaC7BzHCcfFpsgPevFuACOG4DEOGY5jrmbuVn2MmmMUfYSbSBeGhUov/Dnuw2wFPkSMiCN+RqyaK3E0AkCCcqle0Z+CoN0T2Tl44hqRQCEISnETXZrNckr96YckKuH2T7NJewLe4RYQCBUgs/rA5yHltYPFX//7+8e+/P+Lrb174aCigW5ZPgbKk8PFzd4tTRCz8uxIs/qghmgoWf/U9yiAUDoUqo65PmdE0U9Y9PaTu7CsTgb0Yl6Wk3Kzg1X3rEOqyhUk2ih5X3OKPytNiXhvsgFcPZSi5ByHcrEFET4DmoIjAf8B9qCsSa/lBjPRxxSz+EE+GD2fJ4q8ebOluESDW6PPyhiI0AKQJ0BxaIUp3D+VJlV0stIdBRB7vweILbz94d/QWXhuL6t8/WO7UAEafN7fLtSSr96AMECG83TzZAGq5icd7avFfdIB9EtFEBCw+RRgAMP26mWGEdoCMJwP0gM+bG4qQA7QMUfTJlxW1Gy9TkEGoxb9dPXgBQt9/XWKEriGqKv0NdfuTDNCeoy++E4S3dAc8yExw2hex+LczjDCgB1Hff8YI7SQEdYiiT7puf4qChmgZ548r6hTcqQ9jAEBi8W9nGGEQwAIvjGvHENUAlmXX7U/uRUagnGCECCC2h+PoPELMGyEMBEgQLsLMBKkux9YiZA7iph9XxK3rEI5ju4hZ7tVDGspewvYw0ExEZL5ihMXCPwdxddjiE3s4zA5KvDbB4of1IFn616qsEyC1+Gwo2ecgrq6z+MQeirSv/gArxeLn8p0mgKSVbuknCP1mgq642OKzIeqagxjhPdlnLO96ADQMZ8ni34LFDyDYMYsfNAexRtzim4aoymv7fk83Ui8qM6xfPl/OclOE3iGK7gSLHzpE8UO5mT1RgBZXTcgYgcXfvIwCSGUhy00svn+Ior6nFt/rqglOAVh8/xxE9ZbEHrIs9zjOIMtyY4QhAOOKWHxd1jIHu0+oPQwZollM7GG3bb2bACDLcncISwhtFXQ/mGS08hzMX4VEMEJhj0fdVbbHE2WJRiWxh1FGcaWMJ6PJFqhejPCGWvxxQ1S0+P/+/vvH38n10V3Ae/xAWfoXI3SLCIWH1UzktY0AKGe5P9x8INeNo3CL/sETN0BW+IDGmoJksTTw2sa9HGDhtRmiXywuHiCrBtM21qiaHnhTZJd3AW/JuHYeJMs9Ka9tUODXWt3EvDYazbu/h6je/Ur55J6KkCgRFrHJbu5ZdfgbsnDQaKEmu5Q/WLKutPPagkKMcpZ78/mP7vrrrz/+MBf+YoUXBPCTR1b54A4B/GSpTq/lGx1Xdl5bjxd0uMX/jr8HKwKnhjBSOie7V9TiG2SpSAoc9xxEvtEdMKsu4tx5Grrl1eWKxR/19oNs8R2uWin0PbH4fleNez3l1xlGaPdkEoGrBhbfymvrEwWXLL7TkxGUxgiLHgAzavH1+I2JjJdSi2/ltfUBKO/xAwHSPb7y9pkDIOoVjNABUG66Qwgx73Ev6IgWf/VQhbyP1N2J9/i2qJoJYEoQ2p1t5dkihBDzHveCDp71wh4/YA7iO/keP2SI4t1El+p4smYNCmXwPK4g5j0OYCFluWEH7BuiEdnsraVWXACxRniPHzQHMUIa857pvLZe71LLvDaK0DtE0QU7YOuOXk++dKmOJwtAbfpHX9gef8wchJfkwOKTHXAAwKTolv51jyEa4cDH7Mn4pA3rW/lAY95jeG0s8MB4bRihY4jyOwtiD51DVImqMYvv5GxD0xXEvFVe2yCAjNfWIQyYg+jOBCMMm4PQK3SPHzBEu6ZpzFvltQ0ZohG1+MQehgzR7tEQexhmJkh1FbH4IUO0m9uPYpZ7GEBanchrQwi9ZoL2fbf0r0MAMptJ7KHfTNDFS8xyjxqiqchrQ/YwYIiypX8dDrBTmlj8gDmImxay3EMI7Nz7VGLepS2PrIYNP88g5h0yB3GvYIsfMkQjglDjtQ16l5ry2pQst2cOYoSbG8hyB8zBjJAbWJbbMwcxQshyD+G1CcfeyLw2ijBgcCc8yx0yBxP6UChC3xzsCmDxGa9t1HkGwGsjO2C0/YzorfRvCoWcFegOOKpSqyyrhdlDmuVO9OpU2Sh9VCz+qCM3OK/tU3e9vHz6JBW0D1Chi/Z9EEUcsrSA55VbRGmAZ7nHnWcg8NpmqLDZ4HDR7JYWMCFNKszQHKRDiMpukEOmiAiyJAxF9i/8m+WNIjsTZDcsAteb16afZ5AoTPafFTa0yGKEo469obw2WqeTbTgTPpkJwUe77EyjM9pZjDOlaYHJPu7IDSnmfff165pcvKB9gAsfuqC+8pXhZrGAMwFuEaFwt2QWf4irxgEqFp9OzIjy20yrKLWHjNfmkOWLctfst24HrFVnljXx2oYde+Phtdl5MizL7XHVSHU6r80b7zLx2vw7ehii6lHEisUPoFPmPMvNdvRGV40DFCx+QEBPyHKD0mOOvZF5bSF0Sjuvzc6TYRbf7qqN4rU5DpP28tr0wG8JWW7bjl6PbFeU1+Zw1YSmU5nXNu5cHwuvzc2TsfDaHFQuyHIHAdR5bT1cNRUgtfg05t2H0rxmeXfHEGWOeYp53iFzUOO1jZuDMq9NOwbdRWnWeG1uGgnltQX1oMRrGzhEIY1v5rUFUZrXfoBi0EnktfkDegKvbdQJhTKv7R54bWGUZoXX5uPJCLw2bw9KvDYr7SvkdDQ5yw0WP4DS/FXjtXmV5hY/AGAfXlvAQbZWXps1P8h4bYFzECMEXlsAwKQM57U5Tyikz0vmtYVQmjVem5vSjC+IeQcF1cN5bYKrZgUo89qC6JSU16Yd/ecACLy2IIA6r23IHGQAJV5bD0rzulzYe1CLi1KLH3BMIG46kNfmMBOWLLe2/joozetgSnP34Ii1CALY1fso8doGuGqsaTXL7TMTEac0r/2umhgXxQj9R3XSprssN+O1jRmilWzxWWywUgucJ0OCn9zic9lclZVq6ThAT2p1CaPdKC0+roDX1mtHrwGUT2/ZfP2TXP/8Yyv8QwufkMfxySMr3IRv6V5icosIhc8bL6/NZCa02aHw2maWKJEeoOK8Nr8s/Svx2jRZrRYvr815mLSS9/Gd1/YmYUOLrMZrG3KQrXJem84XZQFaiMltrLJM5FY/p0GvN0TWwmvr85sDwnltmKP78kG5XgwF3LxbRC3czD7gW0JkPwCl2MZrCzETHKBo8as4Lit05WUcV7hQQGERL3ChEyHMPU02g0IcZ0wWf6DX65StLLy2QeedpzKvjfc9kdNZ9wXNci8hy62z7ktJFmsULkt6xchrG3SYtGLxQ9mG2OJ7t0BCSsz3krK69Lt4bU5XTe1BNcsdCFCIeU/z0zQa69PBa+tjJmy8Nj+dkvHaPK7aAIA0y/1/HTt8JvDahp13nolZbtjjB9ApRV6bRemBKTGQLeKPv/35tFwJp7eEu2ra4JF5bSFcNc5rm+JnMexvAX789+WDKuvf0es/2qXy2rwAGa/t1X6aBmKdZfl3ojyMYEPPAUq8NgedUqU0r/v85gsn5lv5or24auwAfP+xipHEawujU6Yqr83BdOpEkrh93m63x+32fLm2aW+AiquWx3tU3RFXt299ADVemx2guKMnvDaLIqIs0me/PdVNU+OrQYXT9lpG1TCAqO7rdtfI1e1zXp35V8nWG7D4ZR9KM+yAHQCLqN3OsTZzcnUFpNj8uI9kgEHJF1Td0VjdlvakAaBq8QN6kFGagdfG3Do609hZPUXZHpqaKkIUgkLTHPbmHmReogawLPYnqbq5UN2xlZuG3wkiP6KrZ7lDKM3C6S0xutq2jWNSiKFwxAoZAHaPvjnGhjOdFt2dHUpYmXjAhT4uA0BUqJutWYc45gj56S1egIl8esuulrWHQq19Iv6t63MlBXPL/fmw23Vf7XaH876SAZ5ra3UEuP4N1uHAEN7cwOktfrYhxLzpUNrVRoCWAv+gOVQc4PWAFw5Qum5qNFnZjqY9NdbqTEOEjxWG8OYGstx+gAvl9JZdAEBLJ7cYIMInriDQK838Qsfq3tqAr2mGsIsbdNxE/psv/Ae8IwqZFSoly70LAdjUDZ4wcvsIIgJIeoh80tkAftMBryDXprZW52kaEJLo65/fH7480EsrfPnCP/j+JJ7eUu58rSCdD9vz83l7mPOBSP40aL5dYIlskB05n8/bY1eituCqAUTVzQ9nXF2tVKcXKEI4aFL4zRf378MsO8+b7dJ37nFSHy4tC/zG3XyTRNpzQ7tl9xzDnrV93lHdm+e9BBDNz2sLAeWqvRzIg7AOHozQ8Bsl/rChcHrLzryKk06Yn2PmRZKVMT7PG0GET7ooEu0gLJ6NCLCZPy+iQvIx2m1tBwgIBwDk57VV0c5oh4lGyOrpoWhkKVXZ5hRLAEs0O/V6m21p2E0gS2kfRdxa9A38Aq8NtdI5ivySuudq3Hks6OIoGo5c7sFOtjrJKxNeeg3bpYzOVJCV1DlFhph3UGRbOL1FcGnads/HVL2LrVurTNK+OUQ6QHGVxuvQqbLuB9udUB13bbpCpMa8Q0P3hNcGE4w5hPm25gBLx94xPwi9vcvkIcrG35w/r+aYOqJqMX8YzZZ8k4O7oP5GSWBuQji9RdxNtA0HmLk2x51OoH1zNQJMsuoHr64bx47IdivYSnlKdwjtGSMDTRk+WZt29NGWrat16w5QlTEfzsfIuF1aRAeorp6X7pBFKTzbrVgd8gj/NJKRvXzlfwyb2ChmABvzIiPuJvbMk2la84a3bVh15kVG3NVdWHXzmFeX4/mT2l8M0TK87CWS0tTKM7TSrdLeEOORWcNtYoxsH2GJ7LrFG3Q6QHXNJWLbVvo7pHCnuuHt/SuuO3AwmtgBEHb0WcMmT6YBRE2nvFckO2jZl7dQXX1iG2n6O6RWpeOeocAWHDI0swKCxNEWTDVZa9So2hWqa56DwoZg+fGYxrI4yw2/QzrFLymjQUrHSat7MoZTQlswLc1ZkqWBXzaK57Ej+cLULPbsgV3kpn13hke2D7C1OwWG+Q90x1TvZIBEFjaeaET4e7DLRoCHjBdnP8ABv6TMJsJZPYLREja8NHQTW8d64LcFl7q5ll6AOD59ZiuTAeCIcDxTugU3pdmrc9sSF21hE4tmjpZ84dumNjBrsGcTt3iNIRolV5gH8zgMYJTAQGyulTwHo4iYHlydGnizqRlDKKRpWZA4kbQf90vK5Q9QaWcBqCdfTnxcq5mocivuYt1N04FWgXfaXAoIx+BEQKHdGQuD2wzQoHT1TF0QqlJAbiI5wrim7rJggitw4ul3njmICyeo7gc1INjip0bvhD4aX45eUvoMK+PRL0vqLRUUIk+GeDRdfWc3QL5UVAeo7pnqi3lt8Bru+F8zh6UMIwzKLqVnaX2XSQjgs2F1vXMQVwcPhSIkJzomqXJnb1eNPcYzRMiO7uEsPLgtPJSt3HQne6QuYNeH9rVQmklgX4nJF0hDdqWNAG0Lx4+mhjBsaH5QRKE+2y11aRD6UGt2qIl9xV5g5gXYoweJ0ldq8etdEQgwgmAGGlYaT+YM1R0il0cpVFfuqAPRIfT14BCeDDPRc4ho+gDmsHdAKmk8mQurzr4WyktFLDkQZoCD52BXaJnnuw8DKGx42lJtOuWOdGtpWlXz2oDFz0VeWxecHOGqCUrnylbBn8L+wbopzpiZgGRpO4fqLp5nC9Xx4HAu8tqiqhhrJkCW7cl3SRDACCx0vas02RJCzdSD8FuzlGUrjjSxRHIEkGbS6Ua9eTIX5vm2QTn6lm1ZSacrD2NbSzsP71rIUji00ymvjfTjYFdNnumwA0ZPPeSMX/DZYKYpVK59QxcOZC8CrFnC4pMknthFNzHbJfE9GlMPWpQ+sMj6vvQCrFqeb6CyCp2SZU3rNvMCzNnWhvrFPFoi3zmKqwa7CzSxvADL6iSvTDqVa8uG3cGrZhWzLB+J+oisqFGumiTbzlkrz1TWSuWiWxHsecaRNkQjqZMVpQ0ziTnxNY4eqwBHEewE2ejMY7h7N1et3PMMx9YIsOSeNAmhu9QsL/x5dQ9XGaLZGE9Gko15mqtuI8fDKGnWBbQ3vflSksWWLDa7OHLMpHLPAM7rSuxtvLsoJwMoBBS7dF/lAMgzx93e0Ean3LKAYr1rSyvAas/WLGwqZF5bUhV95qDNtoGsmPPbWwHueQ8iB8TO+C3EFDYzKUp1VXmt+YA4iWrSmDdTuteO3iK7Z8spmhHnxGgmFnyRwRPWQYi98OqI92YwE/FWqA49B+X0liQHP3AKSnOUlZL2u31UaIZ+fxJFzk7Gb3UUZQ8tY+UJdnAnilxENbEItfiTUZpTkj6A2dOcrors/iCSYOpTkjjffMlFwkJNSY2iq7YTq2uOBjX9SgfPQSorMwyaenstUvxLimm5P9cSPQa53JGHdZ/t5Orm532Z5t1uIc+u20au7mCwZqB07x29/WGUO5GRMccsptPheDzsZK5Gt94uIvtLypCjn2vV7XB186ZhCxHpwVOuWyjyv4nmIEuqq1RCwlqu52JnzKmR8799JhIW1OokgIcq0tTEtaeTvNoj/tBwfmwUjWQVuUYhL4aU8anR79bqRXNQB4gtfqotT4PMhCz73NQegJ2/nYS++bJtDBRZmXVcX0yvbNAs97Q9SFppd40TYGdIXC8pK01flbmt1tucWtNSIVn8aQDyl0ji56axAkR7j7zfmy/xVmFaiozbRnLVlF8lgyz3FGZCGc7lWab+MoBNfc76vZyVIpF4W+tMYmJAniunmn2U7ilbXU4qyRU979Mli/q9u0SVjsXqqCfaNIdr7lbTovSobDBrJS3a61EkL+6OP6gD3QcgWLNo0V6Oc6m6S+tTc0KAtnGSlu3lx4/nH5drW8DNIS8pW2JjedFenp9xdex94v4AexwtHTKcq4IuP8WAFyQNpw4WkDDznxuZkI8ncNVGHjvmpPPYmi78TdMs9+vMQQNANfnSZw4Omklylvu1AA57SblXAN5qzaQs96Rmwggw/CyLqQaPwmt77SE64CXliTY94wEGeD2DXlLut20NBDjaVZNlR83BiQIP5lYmmoOlYw6+0QL+Nq30OU9m6jmYkI9fZ5wEDVGboZ8o+Cfz2iZ21V57DoYMUWzrU3iZ8hdz1ULU9PHaflVXjatp5rW9D1fN13SYNRNypFO7ai4z8VZz0M9rmwbgT3PVxgPs5aqF7OgHLTL9Af5irpp3iFp5ba9uJkY420FzECBVZl7bL++qccI/jnmXkwJ8gx19uJqZyGt7tR3927tqQhKskzXw2iZo5Q3MRHg/vA7AIa7atGZCAViAIvAyZ8Xe6szAiwV6YFZosqpIAYzffrKRV1avTldTaZrcWdIUYspPb6GFih/jkobKJiWVTUE2N5wKk4dW16fpqFRlyf9yyqlJ4YVmVsh5gd5ZqbK6CGQkg2RzJuttepCaKf9XKCRpohUUkT6yJpGkR3V9ZDU1k/8HTaGmDzReoPcAAAAASUVORK5CYII=;" parent="1" vertex="1">
          <mxGeometry x="230" y="210.5" width="133" height="133" as="geometry" />
        </mxCell>
        <mxCell id="HzkqRATstMNTENA_7Wu_-6" value="" style="shape=image;verticalLabelPosition=bottom;labelBackgroundColor=#ffffff;verticalAlign=top;aspect=fixed;imageAspect=0;image=data:image/jpeg,/9j/4AAQSkZJRgABAQAAAQABAAD/2wCEAAkGBxISEhUTEBAWFRUVGBYVFRcYFxUYFxcXFRcXGBUYGBYbHikhGhsmHBUVIjIiJiosLy8vFyA0OTQuOCkuLywBCgoKDg0OHBAQGy4gHiAuLi4sLi4uLi4uLi4uLi4uLi4uLi4uLi4uLi4uLi4uLi4sLi4uLi4uLi4uLi4uLi4uLv/AABEIANQA7QMBIgACEQEDEQH/xAAbAAEAAgMBAQAAAAAAAAAAAAAABAYBAwUCB//EAEEQAAEDAgQDBQUGAwcEAwAAAAEAAgMEEQUSITEGQVETImFxgTJSkaHBBxQzQmKxI3LRFSRDgrLh8JKi0vFTY3P/xAAaAQEAAwEBAQAAAAAAAAAAAAAAAQMEAgUG/8QAMhEAAgEDAwIDBgYCAwAAAAAAAAECAxEhBBIxQVETIjIzYXGBkdEFFCOiweGhsSRCUv/aAAwDAQACEQMRAD8A+4oiIAiIgCwtckgaLuIAG5K48uOl7iylZ2jts2zR/VAdlzwNToFDdiTSbRgvP6dh5nZR4cLe/WpkL/0jRg9Oa6ccTWizWgDoNEBopKhzi5rwA4WNgb6HbVTFAlOWZp5OBafMahTgUBlERAEREAREQBERAEREAREQBERAEREAREQBERAEREAULFK9sETpHnRv7k2A+JUwqDi9AyoidDILteLH6EeI3QlWvkqlGJsQkJkdlhadWjbyHU+K6D8LihflcCGP9l7SQWn3XdVSxX4hhUwpe5LG83ic/uh/hn5O8CuxLx80NMdfQyxX3IGdvmNFwqi4NctBVdnC0k+LfYtow6Vv4dQ7yOy2tNS3fK/5Kt4JxxSnuOmsPylwI8gbqwtxqJ/4T2yE7ZXBdKSfUzzo1YeqLXyZirkcQMzC0g3uulTSZmg9VHigJN5Dc8hyCUhyuLD5hSVk5F5zLN0BlFi6ygCIiAIiIAiIgCIiAIiIAiIgCIiAIiIAiIgCwQsogOTj+DRVcTopm3B2I3aeTgeqqeC1slNL/Z2IWcx2lPK4aPFvZJPNfQCFxeJ8DZVwmN3dcO9G8e01w1BBXE1fKNFCql5Knpf+H3X8+4qHDvDFJMJqeohHaU8jm5xdrjG7vMNx4G3ot1T9mEA1hqJGHx1+Y1XN4ZxlzK8CfuyPjME9/fj9l3qF1cRxyfEJTS4eSyMaSz+HRvzVK2NZWT1qkdXCp5Z7YtJtvMV9/gVuopK2nm7CkrnTPAuWsJOQDm8nQbKVRY5i+RsrI+2YdnZM2xsRobjUFfQ8CwKGlZkibqfbcdXPPMuPNcjgWTK6rgv+FO8jwD9fqp8NprPJW9bGcJPZGW23KtdcPg4MX2i1MZtU0RHWwc3/AFC3zXTovtMpH+22SM+LQR8iVcZYmEHO1pHO4H1Xz3iObDZHmGnoxUVG38IZQPN+wUy3R6lVL8tqHbwmu7i8L6lyoOJ6SbSOpjJ6FwB+BXVa8HUG48F8WfwNJ28EMj2skmD32ALuzDQLXdz1NlOl4exeiuaeVz2j3XZh/wBDkVWXVCpoKDdqdVZ/9fc+vZlkFfJ6D7S6iF3Z1tPcjQkdx/j3TofRXfAeL6SrFopbO9x3dd8DurIzUjJW0dalmSx3WUWJF5zLIK7MplERAEREAREQBERAEREAREQBERAEREAK8OC9rBQHyv7VMLySx1LNA7uvt7wBLfiLqBwxxe6jjERphlvvlLHk9TfdXn7RqYPonnmwtePMFdGkoYp6ePtY2uuxt7gHl1WV034j2ux71PXU/wAlCFaG9Jtc2eOP9nNwrjmjmsC4xOPJ4A+eyr2G49DTVlfK912EtLLWJcddAtHGuC0cJAhJEp2jHeFvI7KrRUMmXtGsJa0i5tcA9CFVUrVFKzV7GzSaHS1KcpQclGatZ2T5T563sXBgrcWdqTBSjpdpd/5G3orpgeAwUjMsLAOrvzO8yqfgH2gBtmVUYa0aB7Nh5t5Kw8RcSxR0bp4ntcXDLHY7udp8t/RX05Qtuvdnma2lqt6obNkW7RS4fxfX5nMwab71is0g1ZTx9k3pmL7uV3K+ecIYlTUFLnqZQJZiZSN3EHbQf81SbjiqqXZMPoyb7Pdt59AphUSWXk41OjqVKj2K0I2V3hY5d33dy54thVPO0ioiY8eIFx5O5L5ZxbwvQw3fTVzY3i9o3Oza/pI7wPxVlZwfWVPer654B/wotB5XCl12FUGGU75+wYXN0aXd5zn/AJQCVMluy0c0Z+A9sKjk30jx9X/BQ+HPtBqqXuTXmjFtHaSNHg47+R+K+t4Bj8FZH2kD7+83TM09HDkq1wXw62WlfLWxh76pxkcHD2Wn2GjpYdFW8c4PqcMk+90EjnMbqW7ua3cgt/O35hI7orOTqstPXm4q0Jftb7f2fX2lelVeC+LY66Pk2Zo/iR32/U3q0q0NKtTvwedUpypycZKzR6REUnAREQBERAEREAREQBERAEREAWCsrBQHC40H9yqP/wA3fGy5EuPGClghhGeocxoa3e2m5U7j6oDKN498tYPX/ZcngD7ubuLs1Qd824HIN8FnnJ+JtXVHq0KcfynizW5Rlx8uvZLqG4KKaCWqqTnnc02vqGk7AeK6nA1D2dKC4ayEvdfx2v6Lncc14dJFTlwa24fKfAbD9/go1RjdRU/waBha0Wbm5289m/uuU4xljpj5lrp1q9Bbsb3dt4SSwv6NPHeHULbuDskxvZrMpB/mby8187lJAtfu725XP1Vyx7BWUzA2R/a1EnLWzb8/E30Vp4b4SjZTFlTGHvls59+XugeSp8OVSo+nc9Sjr6ej0ycm53eL9e7XWyK3wHgFFUDNK4ySt9qNx0G1iB+YL6bT07GNDWNDQNgAAF8px7hqow6T7xSucY2m4PNgv7Lxzb4r6DwvjzKyEPbo4aPbzafqDuCtFF28rVmjyfxSLqf8iE99N/tfZrodWaUMBc4gNAJJOwA3Xy8SPxmvFr/c4CD4O6epI+HmurxnictZMMPotTvO/wDK0c2kq04FhcNDAImuAA1c5xsXOO5N1Y/O7dDNC2mp7365cLsu/wAX0Os2MAADQDQLLguHXcXUMP4lXGLbgG/7LhTfajRXywsmmPRjD9V05RRmhp6suIt/Ih8WcJyU8n3/AAwWlaS6SMbOB9rKPorfwxjsdbA2aPS+j282uHtNK4UPFtbMf4GEy25Okexg+G68cLYNWRVckzoYoYpheSJry7vjZ7dAATzC5Vk8F9RN07VLXjxlX+D/AILysrAWVYYgiIgCIiAIiIAiIgCIiAIiIAsFLqHilayGJ8shs1gJKEpNtJcsrHEv96rIKQewy8s3kNLKtcQ4cyjmBgn1vcNv32W5E9FjB8XmeZpYReaYuMkh9iCMcietlI4YwAVMxkeS6Fp1c7eV/M+AusMv1HhZbPpqcfyntHaEFZx7t83+fHuzwb+HcF++udPPJcZu8BuT49BZXCsmhooC7KGtbsBuTyHiuBgEH3SsniJtGWdoL7AA8/JRq2viqJRNVSBlNGbRMv3pD71t7KyLUI+8xV4yr1st+GrNJe9Yil3/AIN/C2EPqJTW1Qvc3jafkbdByV30C+f4hx8B/DpIC47NLr8trNGq5jqPFq78RzomHreMfAan4pCpFK0ck1tDWrS8Su40o9E+UvcufuXjFuIqOJpE0zOYLRZxPmF8tkxxtPUyPwzMGSNILXDYm+rWjXS+iumBfZ1FE8SVD+1OvcLRkNxzBvdW2kwani/Cp42fysaPou3GpPLwcU9RpNLeMN1S6zfEX8rf5PkvD9PijmkUsZjDyXPlcC17ierna/JdiL7NqmY5q2tceoBc4/E6fJfUrJZSqK65Kan4nUk24RjG/ZZ+rKZhn2c0MNrxGV3WQ3+QACs1JhsMQtFCxnk0BTlgqxRiuEYalapU9cm/mYAWQEugXRUZREQkIiIAiIgCIiAIiwgMoiIAiLyXWQGHKhcQS/2hOadryylgN6iQaAuGoYCt3H/FTYB93ifaV4s9w17Jh3NvePIL58/GWljYg1wgbqIge9I7m6V+5N9bLPVqR9J7X4doarXjJW7Pt7/j26dXguNFTNqwIaQdjQxnvv2M5G4vzHiuxW8XUVG0RRd8sFg1mwt1dsFVKfCsQrgGuP3eAABrLOY0N/lGpNuqtmAcEUkNi5navHN+wPg3ZRDe/T9ft7izULSwf60t1v8ArF3z3lLq+/bgqtVLWYlJ2kUBa3Lkvq0Ft72Ljv6LsYXwACA6plLiPys09M29lfWMDRYCwAXil29V0tPG95ZMk/xWrt2UV4cV25+pDw3B6eAWhha09bDMfM7qdNsvbo1qlvYg/FXJJKyPOlJyd5O7NzNlkLzFsFlScnq6XWiaoaz2nALg4hxJbSJt/E7D0XcISk8IrnUjDllhkkAFyQPNcPE+JY4zZgLz8viq5WVbpjcvN+h29FEs4aP0b4/RbKejtmbMVTVt+kteH8UxPsJO47n7vxXfikBFwbhfL3GP8lr/AKtvRYp8UqIXXa8+W4Poup6JP0HMNa4+o+q3S6qmG8WNIH3huQnnvf05KxU1Ux4ux4cPAhYZ05Q5RvhVhPhkm6yvAK9BcXLDKIiAIiIAiIgCxdZXklACVT+OuMGUbMkZDp3Dujkwe876BT8dxiW5p6JgfORYuP4cN/zPPM/p3XKw7guGAPqKhxqKh3ec92wcfdbyXMr8I00I04vfVyui7/0UbAeEaquc6SQljXG7pHg5nHnlafqvpWCcJ0tG27WZnjd77FxPh0XSwL8P1KYjJmcIx11XMaSjnkt1P4hWr+W+2PZYN1A0kFx3K9v7jr8jut8TLADosyNBGuysMJ4qHjKfFZpxZoUBzraA3G6kxtc8XJ05IDcZtbN1K8zNOXU6rbGwDZa6o2agPUHshV3ivGJafLkjJY6+Zw1LeisUA7oSWJrhZwuPFdQaTu1c5nG6sj51HiAm7zX5jz11Hot5/wDst9V18U4Niec8JMT+rToqvXUtVTk9tGZG++3f4L06U6c8LB51ShKOeSU8j/D+e/oopldsdfA6rxDUxO1Drn3Ruvb607W0+fxWlRsZJPvgw+Fn5nZT7v8AzZaJKlzNA2w5E6/NZNNn1Yf+r+pXhzhH3T3idx+X/nkpjboVtmtkQkOlw7x1H+ykU8slMcwe4eDTofM7WUd87X6Xyf6SvTIZG6nRvjsV0/NhnCT5RZsN425Ts095v1Ct1FWxyjNG4H9/gvlgkivoLHqdW38uS8GSSM5w8g9QdFkqaGM35MGylrpQVp5PsN0uqRwjxJLNJ2bxmbb27W1/Yq2VlZHE3NI8NHUlebUpShLa+T1YVFKO4l3S6oGO8dEXZTN/zu+gXc4JxGSenDpXZnAkE2AXUqE4x3SREa0ZS2osiLAWVSWnklcjEKwvf2EJ75F3u/8Ajb1/mWzH8S+7xOf+Y6NHif6LTw1SdnCHv9uTvvJ311A1QE+homRNysFhuTzceZJ5lbKuLMxw6gqJU43AzQyBx6N1PyUT+15pNIYHW952gUi5Hwmu7Nrw7fkP1bLfh8zQTJI7XkOZ8VxnOcXOJ1NzmI2urBhtFC9ocLu8Cdj5KCD3/aDnaMZ67r2yle7V7tFPawDYAKPXT5GnqdAhJGpWAvIA0HwUowEG7Dbw5Lzh0WVnidVKJQGls/vC3jyWurfoLar2ZwdGjN5bepUWZpzNBtc8hsgOhGNB5L0UCFAYK4GMcQwwyCOZpsRq612jzXfKp/EcYMzr82t+qtoQU52ZTWm4RuZrOGqWrHaU7wCdQ5nXxVarcJqaYkvj7VvJw+o5rb9zMffp3mJ1+R0PmF1KHiyRgy1cWduxkZ9WrfFVaXpyjLup1V5sFVdW5/zem1vRbYs357Zf1fTmrjNg1FWjPC5odvdpsQfEKsYtw/VQakGVvUDW3ktNPVRn5eH7zJV0clmOUaB2f5Pa/Vt6f7rU+SRp7xPrsobHl3dY0l3SxuPNWPDeF5ZBeodlYNcuwA8SrKlSFPLZXT09Spi1jhtf2mkUZLttPZ9VYML4TNs9U+zRu29mj+qmS4vS0jclNGJHjp7I8zzVcxGvlqA50z7gEWaNGt9OayynUq8YRrUaVBX5Z36niKCH+HRMD3Ae0RZot0VOxLEZZzmlkLjy90eQWymb3gPP9itQp9MzzlHzPkFbSpU4PuzPVrznngVbSXaAm4bt5L6N9nkZFOQeTivn1XUWIDBa4brzOiv32cH+A7+YqjWv9Iu0VvEZcAiwFleUesUfj6c9pEzkBm9SbX+S7MOBNka1000kugIGazdtO6FzePqIkMlAvlu13hfYqTwZigkjETj34xYeLeXwU9COp26bDYY/YiaPT6qJjdaW2hj1kk0HgOZUzEKtsUbpH7AepPIDxUHBKN13TzfiSage43k3zUEkmhwxrIuzIvcd49SuXJG+lfmGrD8D4HofFWJzranZc2txiBuhdm6tGqkEukrGyC7T5jmFy6uoEktibNabf1XJfIQ7OxhjB2319VIpmtaf4zXAHUb2Pn1UA7X9oX0iaXfstjKZztZHf5RsttNKwj+GW28LKRdAeWsA2FlAY7PL4D6KbO+zSegKg4Q3Qu66IDprBWUQHgqq8SMHajXXKPqrWVVOKBaUfy/1V+m9oZ9T6DjytIb6/RRH+yfMKS6Uhuh5/RaHOa5puMp015L1I3R5Ukmc9sQBL2OLHDXM0218QuxhfF07S1lQ0SNcQMw0IueY5rn9iQ13MW3HmubJuOuZv+oK2VOnUvuWURTr1ISSvhn0PG5IKVom7EOc4gNAA1J2uqlieIzz6Svyt5Rs29SrHxsP7rEej2KsujJ0AWDTRjt3SVzdqZyUtqwRqpgFrCwyha44C5r+Wrd9ufPmp1Uxoy5tTlGnJRJJCWuvtppyWve2sGFxya6dzWuGUZjrcnlodguXK4k3Jup9Kwl4AF9fpz6LxIxjDr3ndPyjz8V3w2zl54NU1OXEE6DKLuP06r6D9nZb2Dg3bMdV8+xCQuyFx/KNtlffs4B7F1x+bms2s9lk06L2t0XEL0sBZXknrmmpgbI0seLtcLEL55iuGy0UokjvkB7r+g90/svpK1TRBwLXAEHcFSnYFPhxllS9hn7rYgHZAC4ySbCwG4C7D8QqZPwKfKPelIb/ANu65GK8JOae0pXbahhNiD+l30K80PFEsJ7OridppmtZ3rfQqfgQdcYHJIb1NQ536W6NU6mwuCIXbGBbcnU/FeqDFYZh/DkB8L2PwXN4jq3OLaaLV8ntfpaOvRQSaKYfepy//DZoOh6f1VjdGCLEA+YUOkiipow0uaANySBc8ytEmPR3tE10h/SDb4oCRJhUZN2gtPVpsvJiljF+2BH6x9Voa6qk/K2IeOrv/a3Q4W0G8hMjv1HT0CgEOuri5uWw1PtNJsfDVdeliytDeg+fNc0t7WpsPZiF7fq5LshAZRFgoDCrHFds7b8wfl/7VoVW4wGsZ8HfRXaf2iM+p9mzgyxnKba68lDd7LvRSc9mm3ULR2wIcHDpqN9160bxPIlZkeF5Ga2mn1CjTzXGrdbixGnMKWyK4dkN9Nue45Lm1LSAfT9wtCtllUW1KJfeLhehYTyMf7hV+aTk3Qf83Vg4nF8Ov0EZ+YVfbGTZebpswfxZ6epbc18CLUjRvl67ryyCzXF2gsPP4KZUENDbC5ta/ryUPUhxPT6rQk9plaVyOJe8A0ZRf1PmoToi52Voub7LrYbhUkrxlbYdVeMG4dji7xF3HdVVdSoccllLSyqergrmC8JmTK6XSwGivFFRtiblYLKSxll6XnVKkp8npU6UKa8qMBZRFWWhERAYstFRSskFnsDh4i6kIgKzV8Hwk5onOjdytqFzpMBrYi50Uoe4gAuvZ9hyuVd0S4KJA6SM3qKBzz7xcXevMLr03EsAFnRuj8Mv9FZF4dE07tB9AhBz4Mbp3+zM31uP3UmWsYGl+YEAX0IXmTDIXbwsP+ULSMFpxqIm/P8Aa6EkGGV8EIlEWd8r23GYN/EcGt1IO1wsUXE8ckrIQxwkc6Vjh7nZcz4OuLLtTQNcACLgEEDxaQWn0IUaLCoWv7RsTQ/3hvpf/wAigOgsFZRAYKrXF4H8O/6vorKVWeNG92PzP0V1D2iKNR7NlZdGcrrajTUKID3XeX1W8OIa4+S1CYEOzjluN17UMHiTsyLC7U26FaZZyWEOF9PgpUMFycpB0OnNQZr5TpbT9lcmncpXKPoGOa4Yf5Gn4WVfdJcDpbZWKsBdhpsP8Lb0Vew2mfK1oYDsLn0XkUGoxd+57VeLla3Y1ytJDbC55fFdXBeHXO7z9AeS7mGYE2MAu1IXZDVVU1DeEWUtNFZZHpaJkYs0KVZLLKyt3NSwEREAREQBERAEREAREQBERAEREAREQBERAYKhYpQNmbldy1CnLBClNp3REkmrMotfw7IwOy94G3yXAMTm5g4EaL6vlUOswyOQEOaNefNbaWulHEjDW0MJZjyfLKbf0K8STksIcAdDvurjW8IZSTEb6HQqpV1DJECJGEaHyXo09RSndo82enq02rrB9K4d1pYr7ZBp6KfT0zWey0Bc7ha/3WK4/KF1wvCnfez3oZimZssrAWVydhERAEREAREQBERAEREAREQBERAEREAREQBERAEREAXkoiMBR6mmY8d9oPmiKVycy4PcMQa0BosBstwRFy+TvoZREUkBERAEREAREQH/2Q==;" parent="1" vertex="1">
          <mxGeometry x="425" y="223" width="120.74" height="108" as="geometry" />
        </mxCell>
        <mxCell id="HzkqRATstMNTENA_7Wu_-7" value="" style="shape=image;verticalLabelPosition=bottom;labelBackgroundColor=#ffffff;verticalAlign=top;aspect=fixed;imageAspect=0;image=data:image/png,iVBORw0KGgoAAAANSUhEUgAAAOEAAADhCAMAAAAJbSJIAAABXFBMVEXxyREAAAAAAAPt1EryyQj3zhD60hvwyRMAAAXkwCD1TyXuyhP2zh3xzRxyZRv5zhP/uASCuAKXgR4qJAwICAooIwxnWBPx0CkCpO9DPBVJPRcJBgwfGyHkviwYDxFnWB16uAD0pxkAAAx8aRz1Rib1xw3ExEyBahVtXRa3ni3ylxrBwhDbxhHruhYbGh7yWBpvWCgAovUAABJrXCjaujfMuz0oGxS0v2LQwi0SBBI3LQ6MfhwtKw8oIhgRABg3LBm8nz2Dby8VESAjIiLmwA/QtB1SSBd+dhy1nCGkkB3LsiDBpR+ahRsbGBEcFxMsJBaukB+UeiFDQxurmRs3NhZVTBRMQw+diy8DEBkaHAtlXiPKqi8dAA8SByCVhDfnyTNmWDUeExyJdjsvGxNKPiGYdCrXsDRYRyIfFig5LCC9p0uljzUhExdya0hDLBBTSDOplU/Tt04dCCB9YywEjxYjAAAQUElEQVR4nO2d+3fa2LXHBfccPSrJ6jgP1bbAU6iuzW2jupi6lZ2AkYyDDTbhOo49IYahYYJT3Jlp8/+v1X0kgZHAARFe8tL3hyysgDgf9j777PMURYUKFSpUqFChQoUKFSpUqFChQoUKteRieF7FWBIEScIUhXi06AJNWzwliYXy+7Un+8evi7KkLro80xeii2ssG7GVuDzhaPyYrMhQuLAWcetl9ZQBf30kmIxaikTZfj42GolEK8nSkfQ4TIlLrMV0LwII19j45gUXfEgGFSy6aNSGZCNRF+1auSCQWskTdw6kVHrfijHEaG+P13+wLOjW/usST0tBJUTqiWM09gAiKC2fbj1z4UUtu55tX4gBja9I2LcN+EPMBkCYLpSP2UFLRo/LBZGG9zDBsiU6tV00EcO8c4WSMM0Vn595CCEYsfsHpzz8EIFCxKus5YZXtAMIKRv5V6X50utzt7taIbeyUhJxkPxVurTzGG6wzBj89WA9AVjRqCu+sjtvOJr4ayCMaVVDaBPoof+rgr+ebD6NuKrlBlg9sb5aCIgphSdWqZ/jof/LW5GHKyXTLn+1MiD2ZbIkBACySzjcho4wFk+rayTvYd3+mtgukiQdIf5rH1+sxiKECocxxZ1AIxLpT2CJ8yaOyzFhmftbYxJCFxlaEWhEthMefyUmXTs4pZc2HxiX0BGWhFJyP2I7rKu1XAF/lchbls1hfRISYbGwuu7xV+iIRDYu38REoFwyW05ACLkspmNvNl2ETsfkXbVAS8Pj8qI0CSERNCLgrzmS6bjDa+QsSXoi0N1aknRgUkJgRAj89WCNdecD5OXZ8yIHTeVyIE5OSITAWgWrEekLr3ZfDHoiyxFev42QCGEsX6xUWLvt6Id9ZQ9nLVjfTkgRh8X8afUlGd7p81cydHC2XVz0cNZUCBnoFGMsFFb/P+JSlPS4Fj38OhVCRxBfjy6ex21LuuLr24NTa3gAqfOfL5gmIRl6lTBfSpJ79lVIC5YMv9IQX+ceYKdLaAlLkPS4B9GBMcFGnj5/05i/v86AkLI7lSebrJUPuFKfyBr0nCWE5mjJ2RCS7hZNH6WSlWgk6skHok9en0pzNOSsCK0eBqLl0sFLj7uSMHRZkKb8fQ9rVoRdYeKvlwkSeFzRtSrMy1FnTUiRSilxF8/P3NM/0RVhTp46B0LKgjwqbbnHmDdn+5U9zYeQiAy/lt+x94MD5fmkrPMjBEtKksC92Uw47Qc7ZBR6BponIcVAr1iiY5cO4cpcvnSuhLYQvWIjDptKmL4WQAhf+s4Kp9GTedTEhRBKJbv1f/9oCXnRng+qzONbF0LI4OeWDROPlpCSSKxho9GAETJkMGOsMX3eIoR+VcAIoX8vjTe05hBGg0WIhdLBSrJcGKfrF0BCBglvntrN+HFhtBmZ4BGqgpNtRqNsoohHzZcGkFDYvu8VsWxplBWDR6heuHp+r+QR/ffgEQr77gG1kxGjMIEjRAXPjPe7UeselpwQqdC097fs+CTi1tnR1++w7K0Fg6Fx72/18KqHMMp9/Q7LTYjpWPHkoiT0xcsBwqfjES5h1oYYRii+tT6QrjLgrbYlfRMubz1kVGHFnoeAf95y3Ymkx0RIr0RYJ3eJRM4byE5ehhB+PTldBOHmWH0Cyd2yXwr25QHCjRGEc4009Lq1VL061kyJ+NK9DurU/pRvG86VEBdJoRPcOIsLccm90iuStC2/3IRQ7He5ywwe0jcfmJAeINmnh19fqkhDISQwGKvDcmWvIfCWZ4vCkwdj6RJFGltD1qAhTIuc4FoLg5NeQjvUBIFwoAiUdFR9BaWobMXuoyze8pA8Ee3rSx1Lh4rhcXHDXmcQSZR7xXhEhBS+IgsMrG0WLJvstiSPiBCXXAVOOYg46dkN9ewBwuWKpcPkTCt0deYEIh+ESx5pwITuPnvKadkDSYiszUu8a5HSQH1bwcOvB6UeShhLri0heNNT4nUndwkkoUqfJi/fXboWYg0QrgWWkEdSbyf+JSdRzuJPvOnJXdacPkTw6iFPl3prB9n4Kebt/PsREaLTxP1ys2i6W64pEH79e+dHKLrXub6nR3jplodw6euht0fLFh4dYdLdZY86SfYgYS+WBo3wnadk3VGJgdaiVw/deohwaSINXfHYavvREb7yeN22Q/JwLHVr6WMpXfGUbLQNx6uHY461zX7egn7pKdkownEjzdKMJg4Sdr3USxjUWAqED9TDGdtwnpFmTBtOuR4uAeES56W+zjaYwIZufWPfYpJYyvja7k8/85RsdD10a/5e2vC3Mnz8SDPlPv7khP8TEnoIB3KapfdSv4T+Y6lb84+l/gl9Zt7RRbcW/r3UX06z+N7TzCJNYOuh/1i66MzbL+ETT8nmlXnPj9Bv1uYlfDbhPP7kPWCfhFLL66XdHvBjaS3wJuseTlxd+pEov4QnHhuWHlsspbjzexsCa8su8DKPCPslxBd9Xsp2Tfjto/pLE0s9Neuq+32PiZCiV62zu8GA+kVv8dMSj2L4J6RwbOtZgk3sV7n7FaZjj0RN2h7OlZBCWOQ4TsTM/Qmdj4yQss6Wc/2Nt9y9JPa9z9ZidB+f7ASLsuy8CL3CRY+tTqZMSOF1y4ZniyKkGPcpJAkncExEiPHgSbwqZx2xHTn2vR9/WoQ41beCgY1cSc4aDd95KU8dVd9eWucL9hWNp+3JZ7a6MELC0nueR/S9wPeu+iNkKOEtqdLsWhlimVM4hpeK9s3ZU9/lnRohQ9/DJLuA/gl5VGSj1nHgkej6gX1SJJLoFGtn/GuC74JNjRBSgYJ1YvDG5ul9NPBdD3mp3H+5clDijrjipfMohkjR/7EYUyRkVOmoUCoc9YcJ34SMVIy4Mt/I07OEfRwf2HWSY5SmSEjxPIMQVl07KX0TUrTrrMiofeKXfcDpNTfBocrTJBwiXPWQvBydeYvldetQOvehw1E2ER9j3/6gZk34xkNy/OCemV5BSFJYXk943sBG9sfahzSgGROimLukbPnBfU+uj2EhduI+2ZRNimiiss6YkKK3+8YE2Ehcti+PzrzJoXQnl6z1A0Uj50lu0untWRNS3Mb9Yk02ksJ+dlhKmCuWX2+9LpeOJj+Gf+aEaqnPT+93moyVeTM8kohI++NvrrpPMyekcOGdc/p6/OR+t5Df/uHkmj0hqLSy/+zJcVnu2/H1qAgZ8ngEUaRR34FJvsdpJtdcbDgoaCfdPeYfZvYEiAURooJ7doBdn9lapwURUuL+0FGPGWhRhLjIst3BK7BmRZzZNy2KkOqdtWAhlobum56KFkbICO97LppI4dkd170wQooSTir2+eSb3CwPtFwgISWJpdXtrRMOq7MsxAIJeYrHZCOjOtvHzS3ShvNRSBh8hYTBV0gYfIWEwdfEhM5UEdmtjqb+zDtk3bl3W/LnxM9I/BYbInJ2hIS8qxa+WQyZ5iajiKozSEqOIpy48zE5IVKLKVsZWZwmI+IO7fsWM7Jq/Xp8Df6atI88kpBX+a7IGhNL9qiR/MG4Ma6zWT2dq/vcevNVMbFEWs9mb9LZdO5QJjeWd9KJfXnC2422ofri/xy9+KMj+7lF8p6iaNfxuKGY2fXYFBFjcUVpNg247102T0wn7mjKujzhN4wm5H//B1u/efG9oz+R60h+ZSo/1uv13TvNjO9O8elojbjS/Eenc7WrK0o2hQihAoQT3m0swt/YevH9d0Q9wo+acUVLkpBpKUqiRk7ShbCq8n1zKO6b832/AlLdF9X79yKwYbYmQQf5UFe0L1DHxd35En7XJdxTjFWBLJVINRWjihHFI0HkZE6wJ/IFURScF4IVJlRBEC0cLMgcI9pDF+QivEW+P+6aEOrEdKgBP90OvXhCRm1UlOskvKIz9Z1Wq73bgRhIyT/l84dWLTqEF2SViFzPf/kE3yd8yrdbrd0U4UexfD5fkOvtdq33jT3CWEsx8guzIQ+EpnElUeCasVeKlhSQ3NFvbw3l1tA/ZwRK+HJzc0zCg9wyblpQPpSJX3/IQGNQTUCE0prpXQ7xfCZuJP65mzDSqa7fgg3NbEpEPP63boK7IrRQQoE8wqGmm9cdLNfTinG+fpyLm9rHDBI7Wa0CrQjK3CnKeQZepHRtR0ZyPqs02/lN8Oy8gNTMnnL2L92Ipw+7JSGE+iHHNQ5/bqaT5KcR5kz4vcuGSJUabU3TMziVVZT2X2W5cZU1b3cFQhavYUbq6Ip5cwiRI980OoKUymofOrIgpHQzkUEICPfOX3UyqU99hJqZa7Uq8At1ZEgJ1dkSMvzv/+zoxXeOLEJV/mje/iNTq3VyTVPPC/KxoeQaJImT603CJh9rGthY2Dn/5UzLC6rcMrMZVW5rYDvMILyr6XUabGgqd+CKUn8sNU0FpJm/1DPgrUiYaWvBqEd/dcQcOeK7hKam608Nzcy2G7ixYTbr1gwSsZ7ewXT9WmnLqHGu/5pTWrLa0LWfZTWjK/q/BYidUGuVHbD0nnn7xbVajcTSs9b6emvvP3fXeymoqzMmxH/7C+h3oL//1pHaI1Q0w9Bu4vUGpmobEBasaIG4lqb9hKVa2vzQUGt6M7NrZBsSVMO8qJaykCf8+OPOjzstTWkzGAiNjmvM266H4O2ZDrFvA8/YhhT6m4U3hHBPMdv5L/n6YQwiOirqpp6xCeW2Am4JKQEJhXVjXT7cuEkJSSNbw7iYVkzDVvOmxZF6qKe8hIqRgpxbhSbfvLnCaMY5Df4KoVEXQGStK0IQULM2IQV1jRAKeUgE5PZ1nc7cNZNy2/gcQ7iYNc/zyXzSUpV5kJDMJ6KGbpKAu0hCcuS1andVMwkol/0RyAAgalISZF27mXNI6KBJbGf2mrsyRVoWPUOrkOwRUTaha3r0npBqbGgLJHTaw16Mlz9CiiUTa4qHhhInDSCQ7v+qf+agoTD2ftX1jgjXPijxq+66IUhioR7qtYF6mE1B5ofozoaiX4lQD7UFEvbeBxXObHZkaJ8zP2skiAL0zu3dL8amSBr7u1+UuwwUX9xtmpWaiFRBjL1hiJdqg4SKAZFGjh3CjwYN7bIQqpAnm0a706l+1LRmjdxX6DRNbaMjISa2p5zfEmoG1z4oyl0+VUvlK8ci8dIhNlTMVrvdzmWbShq8nZotIaNarQVpL1yEEE/27B5Fr2SZVtaE1qPZ1O+srBquQPdnI4MYHmKPoldp0p8SoHYqWjptGDdACK2FkvbWQ0iCFE3TlKb+kQASwttZ5jSN/3XEqF2R65T88+dXnb4RGkQ16rm4nm3m8hnHtI325xxYjleFnz7nKjX7vcKn3b1mlrztEw8/Qi730W1DqpGz1dq5ilndLuFLLtf2v4Z9TEIohErGZlSMrYfaU86BL7zKyBwn9vXs4YrYgCwuE5Od/iyiuEZD5skHBI7jnKd3qJQcq5G3WWUWG42G6Bof4Bm4xDU4Tu6efs7DbSZbPjsO4dc0ZBiRbHdBrrcgzwvnj94g5JDByP7/7l2YtJDhmPe3ipniCNVkCm0YfIWEwVdIGHyFhMFXSBh8hYTBV0gYfIWEwVdIGHyFhMFXSBh8hYTBV0gYfIWEwVdIGHj9Fw1lVj0Q5HeTAAAAAElFTkSuQmCC;" parent="1" vertex="1">
          <mxGeometry x="640" y="108" width="115" height="115" as="geometry" />
        </mxCell>
        <mxCell id="HzkqRATstMNTENA_7Wu_-8" value="" style="shape=image;verticalLabelPosition=bottom;labelBackgroundColor=#ffffff;verticalAlign=top;aspect=fixed;imageAspect=0;image=https://img.icons8.com/color/452/microsoft-excel-2019--v1.png;" parent="1" vertex="1">
          <mxGeometry x="631.5" y="330" width="132" height="132" as="geometry" />
        </mxCell>
        <mxCell id="HzkqRATstMNTENA_7Wu_-11" style="edgeStyle=orthogonalEdgeStyle;rounded=0;orthogonalLoop=1;jettySize=auto;html=1;entryX=0;entryY=0.5;entryDx=0;entryDy=0;strokeWidth=3;" parent="1" edge="1">
          <mxGeometry relative="1" as="geometry">
            <mxPoint x="424.8" y="276.5" as="targetPoint" />
            <mxPoint x="359.00000000000006" y="276.5" as="sourcePoint" />
          </mxGeometry>
        </mxCell>
        <mxCell id="HzkqRATstMNTENA_7Wu_-12" style="edgeStyle=orthogonalEdgeStyle;rounded=0;orthogonalLoop=1;jettySize=auto;html=1;strokeWidth=3;" parent="1" target="HzkqRATstMNTENA_7Wu_-7" edge="1">
          <mxGeometry relative="1" as="geometry">
            <mxPoint x="615.8" y="250" as="targetPoint" />
            <mxPoint x="550" y="250" as="sourcePoint" />
          </mxGeometry>
        </mxCell>
        <mxCell id="HzkqRATstMNTENA_7Wu_-13" style="edgeStyle=orthogonalEdgeStyle;rounded=0;orthogonalLoop=1;jettySize=auto;html=1;strokeWidth=3;" parent="1" target="HzkqRATstMNTENA_7Wu_-8" edge="1">
          <mxGeometry relative="1" as="geometry">
            <mxPoint x="611.54" y="320" as="targetPoint" />
            <mxPoint x="546" y="300" as="sourcePoint" />
            <Array as="points">
              <mxPoint x="546" y="300" />
              <mxPoint x="698" y="300" />
            </Array>
          </mxGeometry>
        </mxCell>
        <mxCell id="HzkqRATstMNTENA_7Wu_-16" value="&lt;b&gt;SSMS/DB5&lt;/b&gt;" style="text;html=1;resizable=0;autosize=1;align=center;verticalAlign=middle;points=[];fillColor=none;strokeColor=none;rounded=0;fontFamily=Georgia;" parent="1" vertex="1">
          <mxGeometry x="62.10000000000002" y="343.5" width="80" height="20" as="geometry" />
        </mxCell>
        <mxCell id="HzkqRATstMNTENA_7Wu_-17" value="&lt;b&gt;SSMS/Views&lt;/b&gt;" style="text;html=1;resizable=0;autosize=1;align=center;verticalAlign=middle;points=[];fillColor=none;strokeColor=none;rounded=0;fontFamily=Georgia;" parent="1" vertex="1">
          <mxGeometry x="250" y="343.5" width="90" height="20" as="geometry" />
        </mxCell>
        <mxCell id="HzkqRATstMNTENA_7Wu_-18" value="&lt;b&gt;SSAS/Tabular Model&lt;/b&gt;" style="text;html=1;resizable=0;autosize=1;align=center;verticalAlign=middle;points=[];fillColor=none;strokeColor=none;rounded=0;fontFamily=Georgia;" parent="1" vertex="1">
          <mxGeometry x="415.37" y="340.5" width="140" height="20" as="geometry" />
        </mxCell>
        <mxCell id="zgh6dBTGILKUaVBM_ig0-8" style="edgeStyle=orthogonalEdgeStyle;rounded=0;orthogonalLoop=1;jettySize=auto;html=1;exitX=1;exitY=0.5;exitDx=0;exitDy=0;exitPerimeter=0;strokeWidth=3;" edge="1" parent="1" source="HzkqRATstMNTENA_7Wu_-19" target="HzkqRATstMNTENA_7Wu_-1">
          <mxGeometry relative="1" as="geometry" />
        </mxCell>
        <mxCell id="HzkqRATstMNTENA_7Wu_-19" value="DB2" style="shape=cylinder3;whiteSpace=wrap;html=1;boundedLbl=1;backgroundOutline=1;size=15;fontFamily=Georgia;labelBackgroundColor=none;fillColor=#0066CC;fontStyle=1" parent="1" vertex="1">
          <mxGeometry x="-100" y="237" width="60" height="80" as="geometry" />
        </mxCell>
        <mxCell id="zgh6dBTGILKUaVBM_ig0-6" style="edgeStyle=orthogonalEdgeStyle;rounded=0;orthogonalLoop=1;jettySize=auto;html=1;exitX=0.5;exitY=1;exitDx=0;exitDy=0;exitPerimeter=0;" edge="1" parent="1" source="HzkqRATstMNTENA_7Wu_-22">
          <mxGeometry relative="1" as="geometry">
            <mxPoint x="480" y="220" as="targetPoint" />
          </mxGeometry>
        </mxCell>
        <mxCell id="HzkqRATstMNTENA_7Wu_-22" value="IVR .csv Query" style="shape=note;whiteSpace=wrap;html=1;backgroundOutline=1;darkOpacity=0.05;labelBackgroundColor=none;fontFamily=Georgia;fillColor=#0066CC;fontStyle=1" parent="1" vertex="1">
          <mxGeometry x="440" y="22" width="60" height="86" as="geometry" />
        </mxCell>
        <mxCell id="zgh6dBTGILKUaVBM_ig0-7" style="edgeStyle=orthogonalEdgeStyle;rounded=0;orthogonalLoop=1;jettySize=auto;html=1;exitX=0.5;exitY=1;exitDx=0;exitDy=0;exitPerimeter=0;" edge="1" parent="1" source="HzkqRATstMNTENA_7Wu_-23">
          <mxGeometry relative="1" as="geometry">
            <mxPoint x="540" y="220" as="targetPoint" />
          </mxGeometry>
        </mxCell>
        <mxCell id="HzkqRATstMNTENA_7Wu_-23" value="ERP .csv Query" style="shape=note;whiteSpace=wrap;html=1;backgroundOutline=1;darkOpacity=0.05;labelBackgroundColor=none;fontFamily=Georgia;fillColor=#0066CC;fontStyle=1" parent="1" vertex="1">
          <mxGeometry x="510" y="108" width="60" height="86" as="geometry" />
        </mxCell>
        <mxCell id="zgh6dBTGILKUaVBM_ig0-4" style="edgeStyle=orthogonalEdgeStyle;rounded=0;orthogonalLoop=1;jettySize=auto;html=1;exitX=1;exitY=1;exitDx=0;exitDy=0;exitPerimeter=0;entryX=0;entryY=0;entryDx=0;entryDy=0;" edge="1" parent="1" source="zgh6dBTGILKUaVBM_ig0-1" target="HzkqRATstMNTENA_7Wu_-6">
          <mxGeometry relative="1" as="geometry" />
        </mxCell>
        <mxCell id="zgh6dBTGILKUaVBM_ig0-1" value="Excel&lt;br&gt;Data" style="shape=note;whiteSpace=wrap;html=1;backgroundOutline=1;darkOpacity=0.05;labelBackgroundColor=none;fontFamily=Georgia;fillColor=#0066CC;fontStyle=1" vertex="1" parent="1">
          <mxGeometry x="380" y="108" width="60" height="86" as="geometry" />
        </mxCell>
      </root>
    </mxGraphModel>
  </diagram>
</mxfile>
